HIERARCHY
ROOT hips
{
  OFFSET 0 10.6860622 2.3727825e-15
  CHANNELS 6 Xposition Yposition Zposition Yrotation Xrotation Zrotation
  JOINT leftUpperLeg
  {
    OFFSET 0.6642549969 -0.9402397400000004 0
    CHANNELS 3 Yrotation Xrotation Zrotation
    JOINT leftLowerLeg
    {
      OFFSET 0 -3.997221335632195 0
      CHANNELS 3 Yrotation Xrotation Zrotation
      JOINT leftFoot
      {
        OFFSET -0.13777839790000004 -4.6145792000000005 -0.22186036399999998
        CHANNELS 3 Yrotation Xrotation Zrotation
        JOINT leftToes
        {
          OFFSET -0.03777410834999995 -0.9130806927000008 0.85230013
          CHANNELS 3 Yrotation Xrotation Zrotation
          End Site
          {
            OFFSET -0.03777410834999995 -0.9130806927000008 0.85230013
          }
        }
      }
    }
  }
  JOINT rightUpperLeg
  {
    OFFSET -0.6642778626 -0.9402397400000004 0
    CHANNELS 3 Yrotation Xrotation Zrotation
    JOINT rightLowerLeg
    {
      OFFSET 0 -3.997221452859387 0
      CHANNELS 3 Yrotation Xrotation Zrotation
      JOINT rightFoot
      {
        OFFSET 0.1377926176 -4.6145792000000005 -0.22185782299999995
        CHANNELS 3 Yrotation Xrotation Zrotation
        JOINT rightToes
        {
          OFFSET 0.037780746850000047 -0.9130806927000008 0.85230167
          CHANNELS 3 Yrotation Xrotation Zrotation
          End Site
          {
            OFFSET 0.037780746850000047 -0.9130806927000008 0.85230167
          }
        }
      }
    }
  }
  JOINT spine
  {
    OFFSET 0 0.13988381660000015 0
    CHANNELS 3 Yrotation Xrotation Zrotation
    JOINT chest
    {
      OFFSET 0 0.6191039003973773 0
      CHANNELS 3 Yrotation Xrotation Zrotation
      JOINT upperChest
      {
        OFFSET 0 0.9855186130586943 0
        CHANNELS 3 Yrotation Xrotation Zrotation
        JOINT leftShoulder
        {
          OFFSET 0.1807663869 1.5087829790000005 0
          CHANNELS 3 Yrotation Xrotation Zrotation
          JOINT leftUpperArm
          {
            OFFSET 0.5985063006419806 0 0
            CHANNELS 3 Yrotation Xrotation Zrotation
            JOINT leftLowerArm
            {
              OFFSET 2.2993332369501065 0 0
              CHANNELS 3 Yrotation Xrotation Zrotation
              JOINT leftHand
              {
                OFFSET 2.395047042602395 0 0
                CHANNELS 3 Yrotation Xrotation Zrotation
                JOINT leftIndexProximal
                {
                  OFFSET 0.5766295810000004 0.04556643899499946 0.17265095988184
                  CHANNELS 3 Yrotation Xrotation Zrotation
                  JOINT leftIndexIntermediate
                  {
                    OFFSET 0.2957229000000008 -0.019352197700001517 -0.007932640616999987
                    CHANNELS 3 Yrotation Xrotation Zrotation
                    JOINT leftIndexDistal
                    {
                      OFFSET 0.19008243099999922 -0.012484908149998475 -0.002786250786000012
                      CHANNELS 3 Yrotation Xrotation Zrotation
                      End Site
                      {
                        OFFSET 0.19008243099999922 -0.012484908149998475 -0.002786250786000012
                      }
                    }
                  }
                }
                JOINT leftMiddleProximal
                {
                  OFFSET 0.5834975091000001 0.0524350405149987 0.02204081888183999
                  CHANNELS 3 Yrotation Xrotation Zrotation
                  JOINT leftMiddleIntermediate
                  {
                    OFFSET 0.33880573540000003 -0.019871473270000717 -0.00000971183179999946
                    CHANNELS 3 Yrotation Xrotation Zrotation
                    JOINT leftMiddleDistal
                    {
                      OFFSET 0.20676022730000088 -0.012221336379999448 0.0001471936708000235
                      CHANNELS 3 Yrotation Xrotation Zrotation
                      End Site
                      {
                        OFFSET 0.20676022730000088 -0.012221336379999448 0.0001471936708000235
                      }
                    }
                  }
                }
                JOINT leftLittleProximal
                {
                  OFFSET 0.5344154683999995 -0.012880921405001189 -0.24414037221816004
                  CHANNELS 3 Yrotation Xrotation Zrotation
                  JOINT leftLittleIntermediate
                  {
                    OFFSET 0.21758961730000093 -0.011650919939999227 0.011893592810000034
                    CHANNELS 3 Yrotation Xrotation Zrotation
                    JOINT leftLittleDistal
                    {
                      OFFSET 0.1475273964999999 -0.008152365682999818 0.006001092492999946
                      CHANNELS 3 Yrotation Xrotation Zrotation
                      End Site
                      {
                        OFFSET 0.1475273964999999 -0.008152365682999818 0.006001092492999946
                      }
                    }
                  }
                }
                JOINT leftRingProximal
                {
                  OFFSET 0.5799399463000003 0.026911854694997794 -0.12150566991816003
                  CHANNELS 3 Yrotation Xrotation Zrotation
                  JOINT leftRingIntermediate
                  {
                    OFFSET 0.26167887460000006 -0.013480186499999602 0.010996293000000053
                    CHANNELS 3 Yrotation Xrotation Zrotation
                    JOINT leftRingDistal
                    {
                      OFFSET 0.17667108799999987 -0.008990287899999228 0.0055541023999999065
                      CHANNELS 3 Yrotation Xrotation Zrotation
                      End Site
                      {
                        OFFSET 0.17667108799999987 -0.008990287899999228 0.0055541023999999065
                      }
                    }
                  }
                }
                JOINT leftThumbProximal
                {
                  OFFSET 0.11018806699999972 -0.09448718900500053 0.17047963138184
                  CHANNELS 3 Yrotation Xrotation Zrotation
                  JOINT leftThumbIntermediate
                  {
                    OFFSET 0.31062601459999983 -0.08126270900000132 0.15443142000000007
                    CHANNELS 3 Yrotation Xrotation Zrotation
                    JOINT leftThumbDistal
                    {
                      OFFSET 0.21627175790000086 -0.08833193599999878 0.018771167799999988
                      CHANNELS 3 Yrotation Xrotation Zrotation
                      End Site
                      {
                        OFFSET 0.21627175790000086 -0.08833193599999878 0.018771167799999988
                      }
                    }
                  }
                }
              }
            }
          }
        }
        JOINT neck
        {
          OFFSET 0 1.5463305265074576 0
          CHANNELS 3 Yrotation Xrotation Zrotation
          JOINT head
          {
            OFFSET 0 0.8456443600000344 0
            CHANNELS 3 Yrotation Xrotation Zrotation
            JOINT leftEye
            {
              OFFSET 0.30408573140000006 0.5104519199999995 0.1276382305
              CHANNELS 3 Yrotation Xrotation Zrotation
              End Site
              {
                OFFSET 0.30408573140000006 0.5104519199999995 0.1276382305
              }
            }
            JOINT rightEye
            {
              OFFSET -0.30409491089999996 0.5104519199999995 0.1276379445
              CHANNELS 3 Yrotation Xrotation Zrotation
              End Site
              {
                OFFSET -0.30409491089999996 0.5104519199999995 0.1276379445
              }
            }
            JOINT jaw
            {
              OFFSET -3.155239131000001e-7 -0.11984121820000082 0.60178107
              CHANNELS 3 Yrotation Xrotation Zrotation
              End Site
              {
                OFFSET -3.155239131000001e-7 -0.11984121820000082 0.60178107
              }
            }
          }
        }
        JOINT rightShoulder
        {
          OFFSET -0.1807303465 1.5087829790000005 0
          CHANNELS 3 Yrotation Xrotation Zrotation
          JOINT rightUpperArm
          {
            OFFSET -0.5985063796536958 0 0
            CHANNELS 3 Yrotation Xrotation Zrotation
            JOINT rightLowerArm
            {
              OFFSET -2.2993322059002854 0 0
              CHANNELS 3 Yrotation Xrotation Zrotation
              JOINT rightHand
              {
                OFFSET -2.395045314457259 0 0
                CHANNELS 3 Yrotation Xrotation Zrotation
                JOINT rightIndexProximal
                {
                  OFFSET -0.5764487688300002 0.0441371204405987 0.17361932004999997
                  CHANNELS 3 Yrotation Xrotation Zrotation
                  JOINT rightIndexIntermediate
                  {
                    OFFSET -0.29573011380000047 -0.01934826376999843 -0.007698921482999974
                    CHANNELS 3 Yrotation Xrotation Zrotation
                    JOINT rightIndexDistal
                    {
                      OFFSET -0.19008373999999884 -0.012503266380000655 -0.0026365778999999897
                      CHANNELS 3 Yrotation Xrotation Zrotation
                      End Site
                      {
                        OFFSET -0.19008373999999884 -0.012503266380000655 -0.0026365778999999897
                      }
                    }
                  }
                }
                JOINT rightMiddleProximal
                {
                  OFFSET -0.5834852037300005 0.05211639405060153 0.02307162440000001
                  CHANNELS 3 Yrotation Xrotation Zrotation
                  JOINT rightMiddleIntermediate
                  {
                    OFFSET -0.33880114510000003 -0.019952774050000954 0.0002455003561999819
                    CHANNELS 3 Yrotation Xrotation Zrotation
                    JOINT rightMiddleDistal
                    {
                      OFFSET -0.20675694929999955 -0.012273788999999091 0.00030209124000002766
                      CHANNELS 3 Yrotation Xrotation Zrotation
                      End Site
                      {
                        OFFSET -0.20675694929999955 -0.012273788999999091 0.00030209124000002766
                      }
                    }
                  }
                }
                JOINT rightLittleProximal
                {
                  OFFSET -0.5346811737299992 -0.011214256288399227 -0.24363941305000003
                  CHANNELS 3 Yrotation Xrotation Zrotation
                  JOINT rightLittleIntermediate
                  {
                    OFFSET -0.21757715980000092 -0.011771559690000988 0.01201554387
                    CHANNELS 3 Yrotation Xrotation Zrotation
                    JOINT rightLittleDistal
                    {
                      OFFSET -0.1475201849000004 -0.00822055339600003 0.006082065407000015
                      CHANNELS 3 Yrotation Xrotation Zrotation
                      End Site
                      {
                        OFFSET -0.1475201849000004 -0.00822055339600003 0.006082065407000015
                      }
                    }
                  }
                }
                JOINT rightRingProximal
                {
                  OFFSET -0.5800810755299999 0.027657985680600072 -0.12066365025000003
                  CHANNELS 3 Yrotation Xrotation Zrotation
                  JOINT rightRingIntermediate
                  {
                    OFFSET -0.26166445029999974 -0.013623118409999302 0.011164098990000045
                    CHANNELS 3 Yrotation Xrotation Zrotation
                    JOINT rightRingDistal
                    {
                      OFFSET -0.17666387530000027 -0.009072900100000503 0.005668185599999959
                      CHANNELS 3 Yrotation Xrotation Zrotation
                      End Site
                      {
                        OFFSET -0.17666387530000027 -0.009072900100000503 0.005668185599999959
                      }
                    }
                  }
                }
                JOINT rightThumbProximal
                {
                  OFFSET -0.10997596379000074 -0.09577489355940072 0.16989765924999997
                  CHANNELS 3 Yrotation Xrotation Zrotation
                  JOINT rightThumbIntermediate
                  {
                    OFFSET -0.31036620999999986 -0.08229339117999834 0.15440884469999996
                    CHANNELS 3 Yrotation Xrotation Zrotation
                    JOINT rightThumbDistal
                    {
                      OFFSET -0.21631306399999906 -0.08825326400000111 0.018656797720000014
                      CHANNELS 3 Yrotation Xrotation Zrotation
                      End Site
                      {
                        OFFSET -0.21631306399999906 -0.08825326400000111 0.018656797720000014
                      }
                    }
                  }
                }
              }
            }
          }
        }
      }
    }
  }
}
MOTION
Frames: 9
Frame Time: 0.03333333333333333
0 11.682712981546562 0 0 0 0 0 0 -5.826343164929014 -0.3712483961610101 -3.6333298826370974 5.838118207697276 0 0 0 0 0 0 0 0 5.826343164929014 0.3712483961610101 -3.6333298826370974 -5.838118207697276 0 0 0 0 0 0 0 -4.610651315171937 0 0 3.0831277533083026 0 0 0 0 0 1.5275236235667615 0 0 0 0 0 0 0 0 0 0 0 0 0 0 0 0 0 0 0 0 0 0 0 0 0 0 0 0 0 0 0 0 0 0 0 0 0 0 0 0 0 0 0 0 0 0 0 0 0 0 0 0 0 0 0 0 1.5275236235667615 0 0 0 0 0 0 0 0 0 0 0 0 0 0 1.5275236235667615 0 0 0 0 0 0 0 0 0 0 0 0 0 0 0 0 0 0 0 0 0 0 0 0 0 0 0 0 0 0 0 0 0 0 0 0 0 0 0 0 0 0 0 0 0 0 0 0 0 0 0 0 0 0 0
5.332881428153949 -7.188709848034204 7.188705285365591 -90.40133499766667 89.73312138885133 89.3438999499025 140.32413800304565 -75.00895895590908 -97.33893096982666 164.76542446211133 84.4268697981996 174.83666935826028 -2.5648815476057902 49.91223008691743 4.080043890534481 0 0 0 -140.33521160659032 -75.007902782913 97.3444567048759 -164.71496679281717 84.42620170218093 -174.78637028862752 2.5576732728741267 49.912166447737306 -4.0872640754809835 0 0 0 -0.14851628148796056 -17.977058295194304 0.10142912657586367 -0.4992789532127453 20.72209315570097 1.0095535895795487 0 0 0 -7.8436519569278556 29.37236705424957 -26.95461337700736 -70.29201124775572 4.003812678977211 18.8914590652598 -69.23424949185251 -0.872949877919898 5.556902794820343 -7.734361082533915 -39.73662569808871 48.229149064497534 0 0 0 0 0 0 0 0 0 0 0 0 0 0 0 0 0 0 0 0 0 0 0 0 0 0 0 0 0 0 0 0 0 0 0 0 0 0 0 0 0 0 0 0 0 0 23.524547801283617 0 0 -24.002691534571895 0 0 0 0 0 0 0 0 0 0 -2.8821190662025535 21.458401800814336 21.136007642416732 80.4024133554862 5.9311326933110085 -6.32533065571865 64.91986138596684 -1.2485604917563797 -5.33601564280373 0.1570529550322952 -27.207273957618703 -47.70212838807474 0 0 0 0 0 0 0 0 0 0 0 0 0 0 0 0 0 0 0 0 0 0 0 0 0 0 0 0 0 0 0 0 0 0 0 0 0 0 0 0 0 0 0 0 0
5.332881428153949 -7.188709848034204 7.188705285365591 -90.40305073637842 89.73312138885133 89.34218410586189 140.32413967719827 -75.00894575329791 -97.33893094498886 164.76542446211133 84.4268697981996 174.83666935826028 -2.564881310280945 49.912224783649215 4.080044174435229 0 0 0 -140.33520863195247 -75.007902782913 97.34445667939825 -164.71495503508694 84.42620170218093 -174.78635825209014 2.5576732728741267 49.912166447737306 -4.0872640754809835 0 0 0 -0.1481306665415132 -17.58836174965435 0.10041922275696628 -0.5014248319278736 21.387725162793313 1.0033650517714663 0 0 0 -7.012110745670089 28.8848522440589 -26.60524807659181 -70.590970862069 4.084576299441463 18.95291308664046 -70.47927719801889 -0.7419332778244141 5.643115491094571 -7.114059028253455 -39.60496002595138 48.48898725926514 0 0 0 0 0 0 0 0 0 0 0 0 0 0 0 0 0 0 0 0 0 0 0 0 0 0 0 0 0 0 0 0 0 0 0 0 0 0 0 0 0 0 0 0 0 0 23.135929477965004 0 0 -24.002691534571895 0 0 0 0 0 0 0 0 0 0 -3.4979670418952655 20.930218663750114 21.064346604641973 80.4023983950124 5.931131405758032 -6.325339613722247 66.1892565578039 -1.1218233111639544 -5.4118773269963665 -0.5634550441244939 -27.030526373046875 -47.836603667378185 0 0 0 0 0 0 0 0 0 0 0 0 0 0 0 0 0 0 0 0 0 0 0 0 0 0 0 0 0 0 0 0 0 0 0 0 0 0 0 0 0 0 0 0 0
5.332881428153949 -7.188709848034204 7.188705285365591 -90.39983366423373 89.73312138885133 89.34540124245717 140.32414135135048 -75.00894575329791 -97.33893092015106 164.7654362200742 84.4268697981996 174.83667975553635 -2.5648815476057902 49.91223008691743 4.080044882377205 0 0 0 -140.33521538588337 -75.007902782913 97.34445583558372 -164.7149763319962 84.42620170218093 -174.78638013670388 2.5576720905716597 49.9121770542615 -4.087265492690563 0 0 0 -0.14775335156867292 -17.199587704058125 0.09941352226506187 -0.503658414925824 22.0537136518128 0.9971170755259553 0 0 0 -6.1870609393047635 28.392512821388344 -26.265271797402193 -70.88988238964346 4.165659219050754 19.01396931297101 -71.72645706874519 -0.6088155658589592 5.726616216226231 -6.493648196670548 -39.475358161420424 48.750385598490844 0 0 0 0 0 0 0 0 0 0 0 0 0 0 0 0 0 0 0 0 0 0 0 0 0 0 0 0 0 0 0 0 0 0 0 0 0 0 0 0 0 0 0 0 0 0 22.74722880156911 0 0 -24.00269340375422 0 0 0 0 0 0 0 0 0 0 -4.111443771065846 20.400938126267825 20.998946653372276 80.40243931856364 5.931139560260263 -6.325314067719316 67.46102061088352 -0.9931794127794795 -5.485056592548525 -1.2838922837303681 -26.85514174362652 -47.97342591173747 0 0 0 0 0 0 0 0 0 0 0 0 0 0 0 0 0 0 0 0 0 0 0 0 0 0 0 0 0 0 0 0 0 0 0 0 0 0 0 0 0 0 0 0 0
5.332881428153949 -7.188709848034204 7.188705285365591 -90.40133499766667 89.73312138885133 89.3438999499025 140.32413800304565 -75.00895895590908 -97.33893096982666 164.76542446211133 84.4268697981996 174.83666935826028 -2.5648815476057902 49.91223008691743 4.080043890534481 0 0 0 -140.33521160659032 -75.007902782913 97.3444567048759 -164.71496679281717 84.42620170218093 -174.78637028862752 2.5576732728741267 49.912166447737306 -4.0872640754809835 0 0 0 -0.14738332599396914 -16.810754482934996 0.09841273601952107 -0.505982688847828 22.72002094777444 0.9908087633833255 0 0 0 -5.368465701299429 27.89554241748469 -25.934655499208677 -71.18876629605283 4.247067690871869 19.07461294742947 -72.97555857093347 -0.4736815227686738 5.807332025001668 -5.873154539947655 -39.3478564918159 49.01326757251103 0 0 0 0 0 0 0 0 0 0 0 0 0 0 0 0 0 0 0 0 0 0 0 0 0 0 0 0 0 0 0 0 0 0 0 0 0 0 0 0 0 0 0 0 0 0 22.35847482363479 0 0 -24.002691534571895 0 0 0 0 0 0 0 0 0 0 -4.72261365271073 19.870675548280097 20.939755043283807 80.4024133554862 5.9311326933110085 -6.32533065571865 68.73477481470168 -0.8627122777367865 -5.555477941145108 -2.004175043871389 -26.681201901453502 -48.112645216790945 0 0 0 0 0 0 0 0 0 0 0 0 0 0 0 0 0 0 0 0 0 0 0 0 0 0 0 0 0 0 0 0 0 0 0 0 0 0 0 0 0 0 0 0 0
5.332881428153949 -7.188709848034204 7.188705285365591 -90.40133499766667 89.73312138885133 89.3438999499025 140.32413465473917 -75.00895895590908 -97.33893268114753 164.76542446211133 84.4268697981996 174.83666935826028 -2.5648815476057902 49.91223008691743 4.080043890534481 0 0 0 -140.33521160659032 -75.007902782913 97.3444567048759 -164.71496679281717 84.42620170218093 -174.78637028862752 2.5576732728741267 49.912166447737306 -4.0872640754809835 0 0 0 -0.14702145355688795 -16.421869522804002 0.09741598477808287 -0.508400584439893 23.38660291283546 0.9844366748327751 0 0 0 -4.556268748443936 27.394119846735666 -25.613354735626352 -71.48761561058043 4.3288002689261615 19.134851462090005 -74.22624208035772 -0.3366204192953993 5.885191980920958 -5.2526614839625045 -39.22248697970792 49.27763309811462 0 0 0 0 0 0 0 0 0 0 0 0 0 0 0 0 0 0 0 0 0 0 0 0 0 0 0 0 0 0 0 0 0 0 0 0 0 0 0 0 0 0 0 0 0 0 21.969664900457012 0 0 -24.002691534571895 0 0 0 0 0 0 0 0 0 0 -5.3315423671912585 19.3395476966953 20.886738049506516 80.40241250913209 5.931136985154282 -6.32533065571865 70.01027673626442 -0.7305121519339353 -5.623080499030957 -2.7242832944459847 -26.50872533864723 -48.25415337381914 0 0 0 0 0 0 0 0 0 0 0 0 0 0 0 0 0 0 0 0 0 0 0 0 0 0 0 0 0 0 0 0 0 0 0 0 0 0 0 0 0 0 0 0 0
5.332881428153949 -7.188709848034204 7.188705285365591 -90.39983366423373 89.73312138885133 89.34540124245717 140.32414178447877 -75.00894575329791 -97.33893176339217 164.76542446211133 84.4268697981996 174.83666935826028 -2.5648834405419993 49.91223539018623 4.080043276019407 0 0 0 -140.33525250081297 -75.0078895812106 97.3444934026311 -164.7149763319962 84.42620170218093 -174.78638013670388 2.5576732728741267 49.912166447737306 -4.0872640754809835 0 0 0 -0.14666672319898158 -16.032934818696443 0.09642396027262076 -0.5109118801009819 24.053406844271553 0.9779984596336682 0 0 0 -3.750412888664403 26.888426675794143 -25.301314016663884 -71.78645907206821 4.410854654646808 19.194662457262513 -75.47826020798733 -0.19772238939814465 5.960130280638551 -4.632207538396925 -39.09927721201897 49.543407485406306 0 0 0 0 0 0 0 0 0 0 0 0 0 0 0 0 0 0 0 0 0 0 0 0 0 0 0 0 0 0 0 0 0 0 0 0 0 0 0 0 0 0 0 0 0 0 21.580814715393753 0 0 -24.002695272936567 0 0 0 0 0 0 0 0 0 0 -5.938294245648644 18.80766018617711 20.839826915905626 80.40244101127202 5.931137414338612 -6.325317480292166 71.2871623052257 -0.5966700703923593 -5.687799769772077 -3.4441580315527345 -26.337764865021548 -48.39791979352102 0 0 0 0 0 0 0 0 0 0 0 0 0 0 0 0 0 0 0 0 0 0 0 0 0 0 0 0 0 0 0 0 0 0 0 0 0 0 0 0 0 0 0 0 0
5.332881428153949 -7.188709848034204 7.188705285365591 -90.40133499766667 89.73312138885133 89.3438999499025 140.32413967719827 -75.00894575329791 -97.33893094498886 164.76542446211133 84.4268697981996 174.83666935826028 -2.564881310280945 49.912224783649215 4.080044174435229 0 0 0 -140.33521160659032 -75.007902782913 97.3444567048759 -164.71496679281717 84.42620170218093 -174.78637028862752 2.5576732728741267 49.912166447737306 -4.0872640754809835 0 0 0 -0.14632103891770326 -15.643970032726042 0.09543598317230659 -0.5135196153981556 24.720384331345432 0.971493228874716 0 0 0 -2.9508372803883667 26.378650983835957 -24.998480709811698 -72.08526962624136 4.493225127186901 19.254041449609648 -76.73129010132237 -0.057083182029640654 6.032083898770549 -4.0118282501774285 -38.97825044630288 49.81051674669545 0 0 0 0 0 0 0 0 0 0 0 0 0 0 0 0 0 0 0 0 0 0 0 0 0 0 0 0 0 0 0 0 0 0 0 0 0 0 0 0 0 0 0 0 0 0 21.191919575836238 0 0 -24.002691534571895 0 0 0 0 0 0 0 0 0 0 -6.542935992507539 18.275123930682895 20.798981886508297 80.4024133554862 5.9311326933110085 -6.32533065571865 72.56519029625626 -0.4612827692400275 -5.749581164678578 -4.163744058830453 -26.168365504339647 -48.54391646809606 0 0 0 0 0 0 0 0 0 0 0 0 0 0 0 0 0 0 0 0 0 0 0 0 0 0 0 0 0 0 0 0 0 0 0 0 0 0 0 0 0 0 0 0 0
5.332881428153949 -7.188709848034204 7.188705285365591 -90.40133499766667 89.73312138885133 89.3438999499025 140.32409709842412 -75.00895895590908 -97.33889181062577 164.76542446211133 84.4268697981996 174.83666935826028 -2.5648815476057902 49.91223008691743 4.080043890534481 0 0 0 -140.33516606502172 -75.00791598462676 97.3444167337213 -164.71496679281717 84.42620170218093 -174.78637028862752 2.5576732728741267 49.912166447737306 -4.0872640754809835 0 0 0 -0.14598133197079075 -15.254976931953667 0.09445236846294529 -0.5162260617288958 25.387508296316852 0.9649174494252234 0 0 0 -2.1574838444355415 25.86498724095059 -24.70481244004845 -72.38403547799349 4.575906395708228 19.31301418924846 -77.98508695695483 0.0852006848909254 6.1009949871432205 -3.3915933189596377 -38.85944319707116 50.07894637139298 0 0 0 0 0 0 0 0 0 0 0 0 0 0 0 0 0 0 0 0 0 0 0 0 0 0 0 0 0 0 0 0 0 0 0 0 0 0 0 0 0 0 0 0 0 0 20.80300400523421 0 0 -24.002691534571895 0 0 0 0 0 0 0 0 0 0 -7.145527461893685 17.74206232130277 20.76416472504688 80.4024133554862 5.9311326933110085 -6.32533065571865 73.84398568025156 -0.3244467118467273 -5.808368592190155 -4.882985928912997 -26.000572159491004 -48.69211163774662 0 0 0 0 0 0 0 0 0 0 0 0 0 0 0 0 0 0 0 0 0 0 0 0 0 0 0 0 0 0 0 0 0 0 0 0 0 0 0 0 0 0 0 0 0
